<svg version="1.2" xmlns="http://www.w3.org/2000/svg" viewBox="0 0 4007 3187" width="4007" height="3187"><defs><clipPath clipPathUnits="userSpaceOnUse" id="cp1"><path d="m2667.89 1723.76q21.44-124.31-27.1-211.74-55.39-99.76-24.82-223.2l64.24-92.03q163.62 105.3 322.55 410.19c17.78 46.5 35.39 93.42 46.43 142.06 9.08 40.04 32.1 116.24 9.81 152.97-64.62-31.36-130.98-75.86-197.52-104.62-30.91-13.37-62.34-25.55-94.19-36.5q-38.55-13.25-99.4-37.13z"/></clipPath></defs><style>.a{opacity:.1;fill:#ee9f9e}.b{fill:#fff}.c{fill:#f7bf59}.d{fill:#f46e38}.e{fill:#3d393b}.f{fill:#ffeedc}.g{fill:#ffd9ab}.h{fill:#5c7750}.i{fill:#526846}.j{fill:#e5643a}.k{fill:#f4a785}.l{fill:#333}.m{fill:#d68a8a}.n{fill:#ee9f9e}.o{fill:#201c1d}.p{fill:#e29393}.q{fill:#242c5e}.r{fill:#678259}.s{fill:#efb456}.t{fill:#ffc973}.u{fill:#ff7b4d}</style><path class="a" d="m2880 2878.5c0 79.3-64.3 143.5-143.5 143.5-79.3 0-143.5-64.3-143.5-143.5 0-79.3 64.3-143.5 143.5-143.5 79.3 0 143.5 64.3 143.5 143.5z"/><path class="b" d="m1716.8 919.8c0-99.8 80.9-180.8 180.7-180.8 99.9 0 180.8 81 180.8 180.8 0 99.8-80.9 180.8-180.8 180.8-99.8 0-180.7-81-180.7-180.8z"/><path fill-rule="evenodd" class="c" d="m1897.5 1105.8c-49.6 0-96.3-19.4-131.5-54.5-35.1-35.1-54.4-81.8-54.4-131.5 0-49.7 19.3-96.4 54.4-131.5 35.2-35.1 81.9-54.5 131.5-54.5 49.7 0 96.4 19.4 131.5 54.5 35.2 35.1 54.5 81.8 54.5 131.5 0 49.7-19.3 96.4-54.5 131.5-35.1 35.1-81.8 54.5-131.5 54.5zm0-358.5c-95 0-172.4 77.4-172.4 172.5 0 95.1 77.4 172.5 172.4 172.5 95.1 0 172.5-77.4 172.5-172.5 0-95.1-77.4-172.5-172.5-172.5z"/><path class="d" d="m2002.1 866.9l-104.1 56.8-3.8-6.9 104.1-56.8z"/><path class="e" d="m1819 1051.5c0.7-1 2-1.2 3-0.6 1 0.7 1.3 2 0.6 3l-3.6 5.4c-0.6 1-2 1.3-3 0.6-1-0.6-1.2-2-0.6-3z"/><path class="e" d="m1764 994.4c1-0.5 2.3-0.2 2.9 0.9 0.6 1 0.2 2.3-0.8 2.9l-5.7 3.2c-1 0.5-2.3 0.1-2.9-0.9-0.6-1-0.2-2.3 0.8-2.9z"/><path class="e" d="m1765.8 841.1c1 0.6 1.2 2 0.6 3-0.7 1-2 1.3-3 0.6l-5.4-3.6c-1-0.6-1.3-2-0.6-3 0.6-1 2-1.2 3-0.6z"/><path class="e" d="m1822.9 786.1c0.5 1 0.2 2.3-0.9 2.9-1 0.6-2.3 0.2-2.9-0.8l-3.2-5.7c-0.5-1-0.2-2.3 0.9-2.9 1-0.6 2.3-0.2 2.9 0.8z"/><path class="e" d="m1976 788.7c-0.6 1-1.9 1.3-2.9 0.6-1-0.6-1.3-2-0.6-3l3.5-5.4c0.7-1 2-1.3 3-0.6 1 0.7 1.3 2 0.6 3z"/><path class="e" d="m2031.1 845.8c-1.1 0.6-2.4 0.2-3-0.8-0.5-1.1-0.2-2.4 0.9-3l5.6-3.1c1.1-0.6 2.4-0.2 3 0.8 0.5 1.1 0.2 2.4-0.9 3z"/><path class="e" d="m2029.3 998.4c-1-0.6-1.3-2-0.6-3 0.6-1 2-1.2 3-0.6l5.3 3.6c1.1 0.6 1.3 2 0.7 3-0.7 1-2 1.2-3 0.6z"/><path class="e" d="m1972.2 1053.4c-0.6-1-0.2-2.3 0.8-2.9 1-0.6 2.4-0.2 2.9 0.8l3.2 5.7c0.6 1 0.2 2.3-0.8 2.9-1.1 0.6-2.4 0.2-3-0.8z"/><path class="e" d="m1746.5 920.9c0 1.3-1.1 2.4-2.4 2.4h-8.3c-1.4 0-2.4-1.1-2.4-2.4v-0.8c0-1.3 1-2.4 2.4-2.4h8.3c1.3 0 2.4 1.1 2.4 2.4z"/><path class="e" d="m1901 767.4c0 1.3-1 2-2.3 2h-1.2c-1.3 0-2-0.7-2-2v-8.3c0-1.3 0.7-2.8 2-2.8h1.2c1.3 0 2.3 1.5 2.3 2.8z"/><path class="e" d="m2061 920.9c0 1.3-1.1 2.4-2.4 2.4h-8.3c-1.3 0-2.4-1.1-2.4-2.4v-0.8c0-1.3 1.1-2.4 2.4-2.4h8.3c1.3 0 2.4 1.1 2.4 2.4z"/><path class="e" d="m1901 1080.9c0 1.3-1.1 2.4-2.4 2.4h-0.8c-1.3 0-2.3-1.1-2.3-2.4v-8.3c0-1.4 1-2.4 2.3-2.4h0.8c1.3 0 2.4 1 2.4 2.4z"/><path class="c" d="m1901.8 932.3l-87.5-151.8 4.4-2.5 87.4 151.8z"/><path class="d" d="m1913 919.8c0 8.5-7 15.4-15.5 15.4-8.5 0-15.4-6.9-15.4-15.4 0-8.5 6.9-15.4 15.4-15.4 8.5 0 15.5 6.9 15.5 15.4z"/><path class="c" d="m1852.1 2508.2q-116.3 0-232.6 0c-107.7 0-237.9 16.7-332.5-43.4-24.5-15.6-46.4-35.4-64.7-58.1-15.4-19.1-28.5-40.6-35.2-64.3-20-70.4 22.7-148.2 86.1-184.7 63.4-36.6 141.9-38.2 213.4-22.9 85.5 18.3 150.3 32.4 234.3 0.8 61.2-23 129.4-41.3 194.3-20.9 89.3 28.1 134.3 153.1 102.4 237-12.9 33.8-36.6 62.1-60.6 89.2-28.2 32-62.2 66.4-104.9 67.3z"/><path class="f" d="m1729.5 2207.2c33-1.1 48.8-34.4 72.1-52.3 5.6-4.2 11.7-7.7 18.4-9.8 7.8-2.4 16.1-2.8 24.3-2.8 14.8-0.1 29.7 1.3 44.1 5.1 15.6 4.1 30.2 11.5 41.8 23 1.4 1.4-0.7 3.4-2.1 2.1-22.3-19.5-53-25-81.7-25.2-8.4-0.1-16.9 0.1-25 2.6-7.1 2.2-13.6 6.3-19.3 11-11 9.2-19.7 20.8-30.1 30.7-11.4 10.8-26 21-42.5 19-2.2-0.2-2.3-3.3 0-3.4z"/><path class="f" d="m1400.5 2161.6c-5.8-3.4-12.7-4.2-19.3-5-6.7-0.9-13.4-1.7-20.2-1.9-14.2-0.3-28.6 2.3-39.4 12.1-1.1 1-2.3-0.4-1.5-1.4 7-9.1 18.3-13.8 29.5-15.3 7-0.9 14.2-0.5 21.2 0.2 6.5 0.6 13.1 1.3 19.5 2.6 5.9 1.1 11.4 3.3 16.1 7 4.4 3.4 7.9 7.8 11.3 12.2 7.5 9.6 15.5 18 26.1 24.2 11.9 7.1 25.7 11.5 39.6 12 1.4 0 1.4 2.1 0 2.1-22.7 0.1-44.3-8.6-60.2-24.9-7.6-7.8-13.1-18.3-22.7-23.9z"/><path class="f" d="m1308.8 2216.4c4.6-8.9 13.6-16.2 21.7-21.8 8.7-5.9 18.5-10.5 28.7-13.2 11.2-3 23.1-3.9 34.6-2.4 5.6 0.7 11.3 1.9 16.7 3.6 5.4 1.7 10.4 4.6 15.4 7.2 0.4 0.2 0.1 0.8-0.4 0.6-5.3-2.7-11-4.2-16.8-5.7q-7.9-2.2-16.1-2.9c-11.2-0.9-22.3-0.1-33 2.9-9.6 2.7-18.7 7-26.9 12.6q-6.3 4.2-11.8 9.5c-3.6 3.5-6.8 7.5-10.4 10.9-0.9 0.9-2.3-0.2-1.7-1.3z"/><path class="f" d="m1743.2 2213.9c1.4-0.5 2.9-0.8 4.4-1q-0.3-0.4-0.7-0.8c-0.7-0.8 0.3-2.4 1.3-1.6q1.5 1 2.9 2.3c3.4 0.1 6.8 0.7 9.9 1.4 6.1 1.2 12.1 3.4 17.7 6.4 11 5.8 20.5 14.9 26.5 25.9 1 1.9-1.8 3.5-2.8 1.7-6.1-10.5-14.8-19-25.4-24.7-5.2-2.8-10.7-4.9-16.3-6.2-2.1-0.5-4.1-0.7-6.2-0.9 8.7 10.3 13.2 26.4 9.3 38.4-0.4 1.3-2.3 1.1-2.3-0.3-0.1-7.6 0-15.1-2.5-22.4-2-6.1-5.2-11.2-9-16.2-2.3-0.2-4.6-0.5-6.8-1-0.5-0.2-0.4-0.8 0-1z"/><path class="c" d="m2603.4 2421.3c-68.8-80.1-110.1-185.6-103.4-291.9 1.9-29.2 6.8-58.1 13.5-86.6 15.4-65.7 44.3-134.1 102.8-167.7 73.1-42.1 168.1-17.1 246.5-48 70.4-27.7 114.9-98.8 190.2-92.4 31.9-28.7 81.4-25.9 122.2-12.4 130.5 43.3 217.6 177.2 231.5 314 13.9 136.8-35.6 273.8-109.8 389.6-10.6 16.6-22.2 33.3-38.8 44-20.5 13.4-46.1 15.9-70.6 17.3-60.4 3.5-121.3 4.2-181.6-1.1q-75.6 0-151.3 0c-63.1 0-123.8 6.4-177.4-13.1-26.5-9.7-51.3-25.6-73.8-51.8z"/><path class="f" d="m3173.7 1856.1c15.3-2 30.8-2.5 46.1-1.4 1.7 0.2 1.7 2.8 0 2.7-52.7-3.2-107.1 14.9-148.4 47.7-9.1 7.2-17.5 15.2-25.3 23.8 59.5-22.1 126.4-38.9 187.3-12.6 15.7 6.8 29.8 16.2 41.3 28.9 1 1.2-0.6 2.9-1.8 1.8-22.3-20-50.2-32.3-79.6-36.9-32.9-5.2-66.4-0.6-98.3 8-19.2 5.1-37.9 11.8-56.4 18.8-2.5 1-3.8-2.4-2.4-4.1 34-41.1 84.5-69.6 137.5-76.7z"/><path class="f" d="m2560.9 2030.8c2.2-5.8 6.5-10.7 10.5-15.4 4.4-5.2 9.3-10.1 14.4-14.7 9.8-8.8 20.7-16.4 32.3-22.7 23.4-12.6 49.7-19.8 76.3-20.1 8.1-0.1 16.3 0.5 24.3 2 5.9 1.1 12.1 2.6 17.5 5.4 7.6-1 15.1-1.5 22.6-1.6 17.8-0.2 35.4 2.1 52.4 7.1 1.5 0.5 0.9 2.6-0.6 2.3-22.3-5.3-46-7-69-4.5q0.1 0.1 0.2 0.2c0.6 0.5-0.1 1.6-0.8 1.4q-1.8-0.5-3.6-1.1c-32.7 4.3-64 17.3-87.9 41.1-5.1 5.1-9.8 10.5-14 16.3-4.3 5.8-7.6 12.2-11.8 18-1 1.4-3.7 0.6-3-1.3 2.1-6.2 6-11.9 9.7-17.2 3.7-5.1 7.6-10 11.9-14.6 8.9-9.6 19.1-18 30.3-24.8 17.1-10.4 36.4-16.9 56.3-20.3-2.9-0.9-5.8-1.7-8.8-2.3-7.4-1.5-15-2-22.5-2-12.9-0.1-25.7 1.4-38.1 4.5-24.8 6-48.1 17.9-67.5 34.5-5.4 4.5-10.4 9.4-15.1 14.7-4.8 5.3-8.8 11.5-14.1 16.3-0.7 0.7-2.3 0-1.9-1.2z"/><path class="g" d="m1836.2 2065.4q-2.1-2.1-4.2-4.2c-32.6-32.9-93.7-108.1-47.3-152.9 27.1-26.3 63 56.9 75.8 75.6 12.9 18.8 26.1 38.5 29.5 61.1 1.5 10.7 0.2 22.8-7.9 29.9-7.2 6.3-18.2 6.6-27.1 3.2-7.1-2.7-13.2-7.5-18.8-12.7z"/><path class="g" d="m1380.8 2056.1c-22.6 4.3-28.3-10.3-24.2-30.5 1.8-8.6 6.7-16.2 11.5-23.5 13.5-20.7 50.2-104.4 81-95.3 4.3 1.2 7.9 4.1 10.9 7.4 42.8 46.3-9.2 111.8-57.9 134.7-7.3 3.4-14.5 5.9-21.3 7.2z"/><path class="h" d="m1769.8 1970.1q6.7 69.5 13.3 139c-37.2 14.9-100.2 34.6-180 33.5-65.4-1-118.2-15.6-152.8-28.3q0-53.7 0-107.3-33.8-15.9-67.5-31.7c29.7-97 113.8-167.4 213.4-178.8 94.8-10.9 207.1 42.1 249.2 136.7-22.5 19.8-53.1 17.1-75.6 36.9z"/><path class="i" d="m1679.5 1861.2c2.2 22.2-1.7 44.2-8.6 65.4-7 21.3-16.8 42.2-28.5 61.4-0.7 1.1-2.8 0.3-2.2-1 8.3-20.5 18.6-40.2 25.9-61.1 7.3-20.7 11.9-42.7 10.5-64.7-0.1-1.9 2.7-1.8 2.9 0z"/><path class="i" d="m1658 1917.6c-10.7 38.9-27.3 75.9-49.5 109.7-6.2 9.4-12.9 19-20.9 26.9-0.9 0.9-2.4-0.3-1.7-1.4 6.5-10.9 14.2-21.2 21-32q10.2-16 18.8-32.9c11.6-22.9 21.2-46.8 28.4-71.4 0.7-2.4 4.5-1.4 3.9 1.1z"/><path class="j" d="m1797.1 2161.5c-9.7 21.8-24.1 39.9-52.7 51-17.5 6.8-35.8 11.4-54.5 12-28.2 1-55.9-7.1-84-9.4-37.5-2.9-75.4 4.6-112.8 0.4-21.8-2.5-44.4-9.8-60.5-25.2-18.9-18.1-20.1-45.2-25.4-69.8q-18.9-87.7-34.2-176.2c-2.4-13.7-4-29.8 5.8-39.7 6.9-7 17.8-8.7 27.4-6.5 9.6 2.2 18.1 7.6 26.1 13.3 48.7 34.7 89.4 84.6 118.5 136.3 7.2 12.8 15.9 24.6 25.8 35.3 7.5 8 16.1 15.6 26.7 18.3 9.4 2.4 19.3 0.8 28.3-2.5 31.3-11.5 51.5-41.3 69.6-69.3 17.1-26.5 35.6-50.9 58.5-72.7 17-16.2 36.4-29.8 57.3-40.3 9.6-4.8 21.5-8.9 30.6-3.2 9.1 5.8 10.5 18.4 10.2 29.1-1.6 55.4-23.2 107.2-40.5 158.9-7.3 21.5-12.2 42.2-20.2 60.2z"/><path class="e" d="m1506.4 2225.4c14.9-7 31.8-23.9 49.1-14.3 8.3 4.6 11.8 15.1 10.9 24.6-0.9 9.4-5.4 18.1-9.8 26.5-6.6 12.4-21.2 18.5-34.2 21.8-19 4.8-38.8 5.6-58.4 6.3q-12.3 0.5-24.6 0.9c-14.6 0.6-37.8 3.6-51-4.3-12.9-7.8-0.1-26.5 9.5-31.7 9.8-5.4 21.4-6.2 32.5-7.7 16.7-2.1 33.2-5.9 49.2-11.3 9.1-3.1 18.1-6.7 26.8-10.8z"/><path class="g" d="m1543.8 2196.9c16.7-19.6 31.3-41.3 46.8-61.8q28-37.3 56.1-74.7 15.6-20.7 31.2-41.4 3.5-4.7 7.1-9.4c22.7-30.1 46.2-59.9 75.1-84.1 15-12.6 31.7-23.7 50.7-28.2 10.5-2.5 22-2.8 31.7 1.8 15.5 7.5 23.2 26.3 21.8 43.4-1.3 17.2-9.8 33-19.5 47.2q-4.3 6.4-9 12.6c-18.3 24.2-39.9 45.8-61.9 66.7q-29.6 28.1-60.4 54.8-34.6 29.9-70.6 58.1c-18 14-89.6 83.9-109.6 59.8-14.1-16.8-0.2-32.1 10.5-44.8z"/><path class="d" d="m1562.5 2195.9c-3.2-4-6.6-7.5-10.9-10.2 12.6-17.1 26.1-33.5 39-50.6q28-37.3 56.1-74.7 15.6-20.7 31.2-41.4 3.5-4.7 7.1-9.4c22.7-30.1 46.2-59.9 75.1-84.1 14.9-12.6 31.7-23.7 50.7-28.2 10.5-2.5 22-2.8 31.7 1.8 15.5 7.5 23.2 26.3 21.8 43.4-1.3 17.2-9.8 33-19.5 47.2-7.3 10.8-14.1 22-21 33.1-36 57.9-76.5 112.9-121.1 164.4-28.2 32.6-58.1 63.8-87.9 94.9-11.1-24.5-24.6-47.9-40.1-69.8q-5.9-8.3-12.2-16.4z"/><path class="e" d="m1705.3 2250c15.5 11.9 32.4 22.2 51.4 27.6 4.5 1.3 10.1 2.1 13.7 5.1 3.9 3.1 5.3 8.4 6.4 13.2 1.2 5.5 2.3 11.5-0.6 16.3-3.7 6.1-12 7-19.1 7.2-34.5 1.2-67-19.1-98-32.3-4.8-2-9.6-4.1-13.4-7.6-3.5-3.4-5.7-7.8-7.8-12.2q-5.8-12.4-10-25.3c-3.4-10.3-2.1-20.1 8.1-25.7 21.5-12 45 13.9 59.8 26.1q4.7 3.9 9.5 7.6z"/><path class="g" d="m1370 1929.7c0.3-17.2 9.7-35.2 25.9-41.1 10.1-3.7 21.5-2.2 31.7 1.2 18.5 6.4 34.1 19.1 47.8 33 28.5 29 50.1 64 71.3 98.8q0.7 1.1 1.4 2.2 22 36.1 44 72.2 15.8 25.9 31.7 51.9c13.4 21.9 25.8 44.9 40.5 66 9.5 13.7 21.8 30.3 6.2 45.7-22.3 22-86.8-54.5-103.3-70.2-33-31.4-64.8-64-95.3-97.7q-12.2-13.6-24.2-27.4c-19.2-22.1-37.9-44.9-53.5-69.7q-4.9-7.9-9.4-16.1c-8.2-15.1-15.2-31.6-14.8-48.8z"/><path class="d" d="m1370 1929.7c0.3-17.2 9.7-35.2 25.9-41.1 10.1-3.7 21.5-2.2 31.7 1.2 18.5 6.4 34.1 19.1 47.8 33 28.5 29 50.1 64 71.3 98.8q0.7 1.1 1.4 2.2c4.7 7.7 9.7 15.2 14.5 22.7 4.6 7.2 8.2 15 12.7 22.2 19.1 30.4 45.4 56.5 60.3 89.3-3.2-0.2-6.2 1.6-8.9 3.3-10.7 6.7-65.1 52.3-70 56.7-0.8 0.7-1.7 1.4-2.7 1.4-1.8 0-5.8-8.2-6.9-9.8q-4.3-6.4-8.6-12.7-8.3-12.4-16.6-24.7c-11.1-16.6-22.2-33.1-33.4-49.6-13.1-19.3-25.5-40.6-40.8-58.3-19.2-22.1-37.9-44.9-53.5-69.7q-4.9-7.9-9.4-16.1c-8.2-15.1-15.2-31.6-14.8-48.8z"/><path class="e" d="m1688.3 1573.8c-11 21-43.4 33.8-60.7 48.2-41.2 34.3-54.7 88.1-82.9 135.2-4.1 6.8-20 11.7-27.2 13.9-4.9 1.5-10.1 0.4-14.9-1.1-35.6-10.9-63.2-44.3-73.6-82.4-10.4-38.1-4.7-80 11.2-115.9-12.7-19.2-12.7-46.9-0.1-66.1 0.3 13.4 3.6 26.7 9.8 38.4-0.7-36.2 14.7-72.5 40.8-95.6-13.4 17.3-19.6 40.7-16.9 62.9 44.4-37.2 107.8-46.4 159.7-23.1 12.8 5.8 25.1 13.4 34.7 24.2 13 14.5 30.5 41.3 20.1 61.4z"/><path class="g" d="m1544.2 1727c5.7-14.5 24.4-20.1 39.6-16.7 14.7 3.3 24.6 12.7 32.5 24.4q2.1 3.1 4.1 6.4c8 13.8 7.8 27.6 11.3 43 0.8 3.6 1.8 7.3 2.8 11 3.1 11.8 6.4 23.6 5.3 35.7-0.7 8.2-3.4 16.1-7.1 23.4-4.8 9.3-11.5 17.8-20.6 22.9-10.6 5.9-23.9 6.6-35.3 2.3-11.3-4.2-20.7-13.2-26.1-24-6.8-13.7-7.2-29.7-7.5-45q-0.5-32.4-1.1-64.7c-0.1-6.3-0.2-12.8 2.1-18.7z"/><path class="k" d="m1559.5 1744.2c0.9-1.7 2.4-2.9 3.9-3.9 8.7-5.7 19.7-6.6 30.1-7 7.6-0.3 15.4-0.4 22.8 1.4q2.1 3.1 4.1 6.4c8 13.8 7.8 27.6 11.3 43 0.8 3.6 1.8 7.3 2.8 11-13.1 0.4-26.2-1.1-38.3-5.8-15.9-6.1-29.9-18-36.3-33.7-1.4-3.7-2.4-8-0.4-11.4z"/><path class="g" d="m1678.7 1753.5c-1.3 4-2.8 8.1-6 10.9-3.6 3-8.5 3.8-13.2 4.3-23.5 3-47.5 4.8-70.8 0.1-23.2-4.7-45.8-16.7-58.8-36.5-3.3-5-6.2-10.8-11.5-13.9-6.3-3.8-14.5-2.7-21.3-5.5-14.1-5.8-15.7-28.3-3.6-37.6 12.2-9.2 31.6-4 39.6 8.9 8.4-17.1 24.3-27.3 39.2-38.4 16.6-12.5 33.4-24.8 50.3-37q4.7-3.5 9.5-7 15.3-11.1 30.5-22.3c17.4 22.1 23.2 53.8 25.9 81.1 3.1 31.2-0.1 63.1-9.8 92.9z"/><path class="l" d="m1636.8 1655.4c1.8 3.9 0.2 8.5-3.6 10.3-3.9 1.9-8.5 0.3-10.3-3.6-1.9-3.8-0.3-8.4 3.6-10.3 3.8-1.8 8.4-0.2 10.3 3.6z"/><path class="l" d="m1685.3 1632.4c1.8 3.8 0.2 8.4-3.7 10.3-3.8 1.8-8.4 0.2-10.3-3.6-1.8-3.9-0.2-8.5 3.6-10.4 3.9-1.8 8.5-0.2 10.4 3.7z"/><path class="e" d="m1631.3 1642.3c-6.2 2-12.1 6.5-16.9 10.8q-3.7 3.2-7 6.9c-2.1 2.3-3.4 5-6.7 5.3-1 0.1-2.3-0.8-2.4-1.8-0.5-3.6 2.1-5.7 4.3-8.3q3.9-4.4 8.1-8.4c5.6-5.3 10.8-10.5 18.3-12.8 5.3-1.6 7.5 6.6 2.3 8.3z"/><path class="e" d="m1657.2 1619.5c4.4-3.3 8.7-4.3 13.9-5.6 4.3-1 11-3.5 14.7-0.6 1.2 0.9 0.8 2.6 0 3.5-1.4 1.9-3.1 1.8-5.2 2.2q-3.5 0.6-6.9 1.6c-3.9 1.2-8 3.2-11.3 5.6-3.9 2.9-9-3.7-5.2-6.7z"/><path class="k" d="m1520.6 1701.9c-0.4-2.1-2.4-3.7-4.4-4.4-2-0.8-4.5-0.8-6.2 0.6-1.6 1.4-1.8 4.1-0.9 6 1 2 2.9 3.3 5 4 2.1 0.7 4.3 0.8 6.5 0.9-3.2 0.2-6.5 0.2-9.6-0.6-3.1-0.8-6.1-2.6-7.7-5.3-1.3-2.3-1.5-4.9-1.6-7.5-0.1-1.9 0-3.9 0.6-5.7 0.8-2.1 2.3-3.7 3.8-5.3 12.6-13.3 13 9.8 14.5 17.3z"/><path class="k" d="m1664.9 1694c2.3-1.9 4.3-4 6.3-6.1-4.9-8.2-8.8-16.9-12-26-3.4-9.5-7.1-19-7.5-29.2-0.1-0.5 0.7-0.7 1-0.2 5.1 8.3 7.3 17.9 10.8 27 3.7 9.4 8 18.7 13.4 27.3 0.7 1.1 0.3 2.4-0.4 3.3-4.7 5.5-11 12-18.1 14.1-2 0.5-3.4-1.9-2-3.3 2.6-2.6 5.7-4.6 8.5-6.9z"/><path class="k" d="m1679.3 1725.1q0.1 0.3 0.2 0.6c0.4 1.3-0.1 2.8-1 3.8-8.9 9.4-23.9 10.5-35.9 7.7-1.2-0.3-2.6-1.8-2.4-3.1 0.1-0.3 0.1-0.9 0.1-0.9 0.4-1.2 1.8-2.6 3.2-2.4 6.4 0.8 12.8 0.4 19-1.4 2.7-0.8 5.3-1.8 7.8-3.4 2.4-1.6 3.7-3.7 7-2.9 1 0.2 1.7 1.1 2 2z"/><path class="g" d="m1580.4 2133.8c0.2-1.3 0.8-2.4 1.8-3.1-2.8-3.3-0.8-8.8 2.9-11.2 3.7-2.4 8.3-2.4 12.7-2.4q9.9-0.1 19.8-0.1c4.8 0 9.9 0 14.6-1.4 3.6-1.2 5.8-4 9.2-5.7 4.7-2.4 9.6-4.7 14.4-6.9 4.6-2.1 9.2-4.2 13.7-6.3 43-19.5 86.8-37 131.3-52.5 16.3-5.7 55.3-26.6 72-21.5 19.4 6 20 38.9 9.6 52.1-6.8 8.7-17.2 13.8-27.3 18.3-36.6 16.3-74.9 28.9-114 37.6-20.5 4.6-41.3 8.1-62.2 10.5q-2.6 0.3-5.1 0.6-8.5 0.9-17 1.6c-5 0.4-10.7-0.1-15.6 0.9-3.9 0.8-6.8 5.2-10.1 7.6q-2.6 2-5.4 3.6c-2.5 1.4-5.1 2.6-7.9 3.5-8.8 2.7-19.1 1.9-26.4-3.8-1.2-1-2.4-2.1-3-3.6-0.6-1.5-0.5-3.3 0.6-4.4-3.7-0.1-6.2-4.9-4.1-7.9-2-0.1-3.8-1.5-4.4-3.4-0.2-0.7-0.3-1.4-0.1-2.2z"/><path class="k" d="m1582.2 2130.7c-2.8-3.3-0.8-8.8 2.9-11.2 3.7-2.3 8.3-2.4 12.7-2.4q9.9-0.1 19.8-0.1c4.8 0 9.9 0 14.6-1.4 3.6-1.2 5.8-4 9.2-5.7 2.7-1.3 4.9-3.2 8-2.1 2.4 0.9 4.5 2.5 6.5 4.2 9.3 8.2 15.3 19.5 23 29.2q-2.6 0.3-5.1 0.6-8.5 0.9-17 1.6c-5 0.4-10.7-0.1-15.6 0.9-3.9 0.8-6.8 5.2-10 7.6q-2.7 2-5.5 3.6c-13.1-10.9-28.7-19.6-45.3-21.7 0.2-1.2 0.8-2.4 1.8-3.1z"/><path class="g" d="m1372.5 2006.6c16.8-5.1 55.8 15.8 72.1 21.5 33.8 11.7 67.1 24.6 100 38.7 4.8 2.1 9.4 4.6 14.3 6.5q24.2 9.2 48.3 18.3c10.2 3.9 20.5 5.7 31.2 7.9 4.6 1 9.7 2.1 12.8 5.7-2.5 1-4.8 2.2-6.1 3.2 1.8 0.5 3.4 2.4 4.9 3.6 2.3 1.8 4.7 3.4 6.9 5.3 4.3 3.7 8.1 7.8 11.4 12.3 3.4 4.7 6.9 10.7 7.2 16.7 0 1.1-0.4 2.5-1.5 3-0.6 0.3-1.3 0.2-2 0.1-2.3-0.5-4.5-1.5-6.4-2.8 1 2.6-2.1 5.3-4.9 5.1-2.8-0.2-5-2.3-7-4.3-0.8 2.6-3.4 4.6-6.1 4.6-2.7 0.1-5.4-1.7-6.4-4.3-1.3 2.6-4.2 4.4-7.2 4.3-4.5-0.1-6.9-4-9-7.4-11.8-19.7-26-16.3-46.2-18.2-21.7-2.1-43.2-5.3-64.5-9.7-42.6-8.8-84.2-22.1-124-39.8-10.1-4.5-20.5-9.5-27.3-18.3-10.4-13.2-9.8-46.1 9.5-52z"/><path class="m" d="m2653 1291.8c24.3 1.7 36.5 30.5 39.1 54.7 10.6 98.9-32.5 211.9-74.8 299.5-11.6 24.2-26.6 49.8-51.9 58.9-19.3 7-40.7 2.9-60.8-1.3q-54.6-11.4-109.2-22.8c-40.2-8.4-80.6-16.9-118.3-32.8-19.8-8.3-42-25.5-36.4-46.2 3-11 13.7-18.6 24.8-21.3 11.2-2.7 22.8-1.3 34.2 0.1q58.7 7.2 117.3 14.4c31.2 3.8 64.6 4.1 95 12.2 5.9 1.6 11.7 3.4 17.8 4.1 30.5-93.1 40-192.7 80.2-290.8 6.9-16.7 25-29.9 43-28.7z"/><path class="k" d="m2264.3 1623.8c-1.6 1.5-3.5 2.9-5.7 3.3-7.9 1.2-15.8-0.3-23.8 0.5-8.8 0.9-17.3 2.9-26.1 3.5-27 2-52.8-8.4-76.7-20.4-2.2-1.1-4.6-2.4-5.5-4.9-0.9-2.3 0.8-6 3.2-5.7-4.7-0.5-10.3-3.4-14.7-5.2-3.4-1.4-8.8-2.8-8.8-7.1 0-2.3 1.2-4.6 3.1-6-3.4-1.1-5.9-5.6-4.9-8.9 0.8-2.3 2.8-3.6 5.1-4.2 0.5-0.1 6.5-0.9 6.7-0.5-0.6-1.9-0.7-4.1 0.4-5.8 1.4-1.9 4.1-2.4 6.5-2.8 6.4-1 13.6-0.7 20.1-1.1 4.4-0.2 8.9-0.6 13.3-0.5 14.1 0.3 28 2.2 41.7 5.3-0.4-3.1-5.3-4.5-5.4-7.7 0-1.7 1.5-3.1 3.1-3.5 1.7-0.5 3.5-0.2 5.2 0 18.3 2.7 35.9 7.5 50.4 19.7 3.9 3.3 7.6 7.5 12.1 10.1 3.8 2.2 5.6 2 7.6 6.4 3.9 8.3 2.8 19.2-1.1 27.3-1.4 2.9-3.3 5.6-5.5 7.9q-0.2 0.1-0.3 0.3z"/><path class="n" d="m2254.7 2483.1c0.6-2 1.6-4.4 3.3-7.1 4.5-7.2 26.1-17.1 45.2-28.2 4-2.4 7.9-4.8 11.5-7.3q24.9-16.9 64.7-37.5l46.3-1.9q14 23.5 8.5 41.3c-1.3 4.4-3.1 8.4-5.5 11.5q-0.2 0-0.4 0.1c-17.8 5.6-76.7 21.1-115.2 40.3-24.6 6.4-46.3 2.8-47 2.6q0 0 0 0-14.7-1.4-11.4-13.8z"/><path class="o" d="m2254.7 2483.1c3.4 10.6 31.9 13.5 55.9 5.6 36.3-11.9 97.8-37.6 123.6-46.3-1.3 4.4-3.1 8.4-5.5 11.5q-0.2 0-0.4 0.1c-17.8 5.6-76.7 21.1-115.2 40.3-24.6 6.4-46.3 2.8-47 2.6q0 0 0 0-14.7-1.4-11.4-13.8z"/><path class="o" d="m2434.7 2442.1q-1.7 13.5-5.3 27.6-3.6 14.2-5 16.7l-15.7-0.2 4.3-32.5z"/><path class="g" d="m2314.7 2440.5q24.9-16.9 64.7-37.5l-11.9-195.7 80 2.5-21.7 191.7c-1.5 1.7-3.1 2.9-4.6 4.4-22.5 23.4-51.8 39.6-83 48.5-10.5 3.1-22.9 4.7-31.5-2-1.5-1.2-3-2.8-3.5-4.7 4-2.3 7.9-4.7 11.5-7.2z"/><path class="e" d="m2369 1733.4c21.7-12.1 47.2-14.9 72-16.5 169.2-10.9 337.7 19.2 502.3 55.6 50.4 11.2 101.4 17.9 114.8 74.7 34.3 146.3-175 147.4-265 135.1-70-9.6-137.9-32.4-206.3-47.5-30.1-6.6-59.6-20.9-90.4-23.4-2.7 35-2 68.1-2 103.1 0 24.9 0.1 49.8-0.8 74.7-0.9 25.3-5 51.2-4.3 76.4 1.5 50.8-1.9 102.1-6.8 152.7-0.3 2.8-0.7 5.8-2.7 7.8-2.2 2.2-5.6 2.3-8.7 2.4q-52.7 0.9-105.5 1.7c-2.1 0.1-4.4 0.1-6.3-0.8-4.5-2-5.9-7.6-6.6-12.4-2.1-15.1-2.8-30.3-3.4-45.5q-4.1-100.8-5.3-201.7c-0.8-65.3-8.8-130.6-8.8-196-1.3-46.6-15.6-112.7 33.8-140.4z"/><path class="o" d="m2447 1868.8c10.1 3.5 19 10.5 27.2 17.2 7 5.8 13.5 12 19.6 18.8-1.9-15.5-4.6-30.8-6.5-46.2-0.1-1.3 2.2-1.6 2.4-0.3 3.3 17.4 5.4 35.1 9 52.5 0.4 1.9-2.1 3.8-3.6 2.1-7-8.3-14.8-16-23.2-22.9-8.3-6.9-17.8-12.3-26-19.3-0.9-0.7 0-2.2 1.1-1.9z"/><path class="n" d="m2667.9 1723.8q21.4-124.3-27.1-211.8-55.4-99.7-24.8-223.2l64.2-92q163.6 105.3 322.6 410.2c17.7 46.5 35.3 93.4 46.4 142 9.1 40.1 32.1 116.3 9.8 153-64.6-31.3-131-75.8-197.5-104.6-30.9-13.4-62.4-25.6-94.2-36.5q-38.6-13.3-99.4-37.1z"/><g clip-path="url(#cp1)"><path class="p" d="m3090.4 1876c-49.4-34.9-103.4-62.7-158.5-87.4-15.6-7-31.4-13.8-47.2-20.5q2.1 0.9 4.1 1.7c-27.9-11.7-55.9-23.4-84.1-34.6-28.6-11.5-57.7-22.2-87.5-30.2-16.7-4.4-33.6-8-50.7-10.3q2.3 0.3 4.6 0.6-3.8-0.5-7.5-0.9c-4.8-0.5-8.8-1.6-12.3-5.1-3-3-5.2-7.9-5-12.2 0.2-4.5 1.6-9.1 5-12.3 3.2-2.8 7.8-5.5 12.3-5 32.7 3.7 64.6 11.4 95.9 21.8 30.2 10.1 59.6 22.2 89.1 34.3 57.6 23.8 115.4 47.6 170.7 76.6 30.6 16 60.4 33.7 88.6 53.6 3.7 2.7 6.7 5.8 7.9 10.3 1.2 4.2 0.6 9.7-1.7 13.4-4.8 7.3-15.8 11.8-23.7 6.2z"/><path class="p" d="m3097.4 1765c-14.9-7.6-30.1-14.5-45.5-21q2.1 0.8 4.2 1.7c-42.2-17.8-85.8-31.8-129.9-44.1-44.5-12.4-89.4-23.8-134.4-34.5-26.4-6.2-53-11.8-79.9-15.5q2.3 0.4 4.6 0.7c-22.5-3-45.3-4.5-68-3.8-9 0.3-17.7-8.2-17.3-17.3 0.4-9.7 7.6-17 17.3-17.4 65.4-2 129.7 14.1 192.7 29.9 59.3 14.8 118.6 29.8 176.3 50.2 33.2 11.8 65.9 25.3 97.3 41.2 8.1 4.1 11.1 16.2 6.3 23.7-5.4 8.3-15.1 10.6-23.7 6.2z"/><path class="p" d="m3099.2 1662.6c-51.5-18.3-104.9-30-158.8-38.6-15.2-2.5-30.5-4.7-45.8-6.7q2.3 0.3 4.6 0.6c-32.5-4.4-65.1-8.2-97.6-11.9-33.5-3.8-67.1-7.1-100.8-7.1-18.7 0-37.5 1-56.1 3.4q2.3-0.3 4.6-0.6-5 0.7-10 1.5c-4.7 0.8-9 0.8-13.3-1.7-3.6-2.1-7-6.3-8-10.4-1-4.4-0.8-9.4 1.8-13.3 2.3-3.6 6-7.3 10.3-8 32.7-5.2 65.8-6.4 98.8-4.8 31.7 1.5 63.1 5.2 94.5 8.9 62.1 7.3 124.4 14.7 185.6 27.7 33.7 7.1 67 16.1 99.4 27.6 4.3 1.5 8 3.9 10.3 8 2.2 3.7 3.1 9.1 1.8 13.3-2.8 8.4-12.2 15.3-21.3 12.1z"/><path class="p" d="m3079.5 1568.2c-29.2-7.5-58.8-13-88.7-17q2.3 0.3 4.6 0.6c-43.9-5.8-88.1-8.6-132.3-10.3-44.1-1.8-88.4-3.5-132.6-3.1-25 0.3-49.9 1.5-74.7 4.8q2.3-0.3 4.6-0.6c-14.8 2-29.6 4.8-44.1 8.5-8.8 2.2-19.2-2.9-21.3-12.1-2.1-9 2.7-18.9 12.1-21.3 61.5-15.7 125.5-14.7 188.5-13 62.3 1.7 124.7 3.4 186.6 10.8 35.9 4.3 71.6 10.3 106.5 19.3 8.8 2.3 15 12.5 12.1 21.3-2.9 9.1-11.9 14.5-21.3 12.1z"/><path class="p" d="m3073.2 1484.6q-17.1-3.2-34.3-5.5 2.3 0.3 4.6 0.6c-47.1-6.3-94.6-8-142.1-7.6-47.3 0.3-94.8 2.3-142.1 4.6-25.8 1.3-51.6 3.1-77.2 6.5q2.3-0.3 4.6-0.6c-26.1 3.6-51.8 8.9-76.8 17.1-8.6 2.8-19.3-3.3-21.3-12.1-2.2-9.5 2.9-18.3 12.1-21.3 59.2-19.5 122.2-22.8 184.1-25.3 62.8-2.6 125.7-5.3 188.5-2.2 36.6 1.9 73.1 5.7 109.1 12.4 4.1 0.8 8.4 4.5 10.4 8 2.1 3.7 3.1 9.2 1.7 13.3-3.1 9.6-11.7 13.9-21.3 12.1z"/><path class="p" d="m3058.2 1422.3q-17.1-3.2-34.3-5.5 2.3 0.3 4.6 0.6c-47.1-6.3-94.6-8-142.1-7.6-47.3 0.3-94.8 2.3-142.1 4.6-25.8 1.3-51.6 3.1-77.2 6.5q2.3-0.3 4.6-0.6c-26.1 3.5-51.8 8.9-76.8 17.1-8.6 2.8-19.3-3.3-21.3-12.1-2.2-9.5 2.9-18.3 12.1-21.3 59.2-19.5 122.3-22.8 184.1-25.3 62.8-2.6 125.7-5.3 188.5-2.2 36.6 1.8 73.1 5.7 109.1 12.4 4.1 0.8 8.4 4.5 10.4 8 2.1 3.7 3.1 9.2 1.7 13.3-3.1 9.6-11.7 13.9-21.3 12.1z"/><path class="p" d="m3032.8 1309c-28.7 0.6-57.2 3-85.6 6.8q2.3-0.3 4.6-0.6c-45.5 6.1-90.4 15.6-135.1 26.2-42.9 10.2-86.1 20.4-128.6 32.7-22.9 6.6-45.7 14.1-67.7 23.4q2.1-0.9 4.1-1.7c-14.6 6.2-29 13.1-42.8 21-7.8 4.6-19.2 2.2-23.6-6.2-4.4-8.2-2.2-18.8 6.2-23.6 52.9-30.4 112.3-46.6 171.1-61.3 61.8-15.4 123.8-31.1 186.7-40.9 36.7-5.7 73.6-9.7 110.7-10.4 9-0.2 17.7 8.1 17.3 17.3-0.4 9.5-7.6 17.1-17.3 17.3z"/><path class="p" d="m2920.1 1122.9c-24.8 14.4-48.7 30.3-71.7 47.4q1.9-1.4 3.8-2.8c-36.9 27.4-71.6 57.5-105.5 88.3-32.7 29.7-65.5 59.5-96.7 90.8-16.9 17-33.2 34.6-48 53.3q1.4-1.7 2.8-3.5c-9.8 12.5-19 25.6-27.2 39.2-4.7 7.7-15.9 11.1-23.8 6-7.8-5.1-11-15.4-6-23.7 31.6-52.2 75.8-95.1 120.1-136.5 46.7-43.4 93.3-87 143.6-126.1 29.3-22.8 59.7-44.1 91.8-62.7 7.9-4.5 19.4-1.5 23.5 6.8 4.3 8.5 1.7 18.6-6.7 23.5z"/></g><path class="d" d="m2589.3 1130.9c0.2 0.2-19.8 11.4-21.9 12.1-7.6 2.5-14.8 2.5-22.6 0.9-19.2-3.9-38.8-11.7-56.3-20.5-65.7-33.1-165.1-112.1-132.1-197.1 2.4-6.2 5.4-12.2 9.6-17.3 4.5-5.6 10.1-10 15.7-14.4 22.4-17.5 45.7-35.6 73.5-41.9 17-3.9 34.8-3.1 52.1-0.4 29.5 4.8 58.3 15.4 82.4 32.9 30.6 22.3 61.6 64 58 103.9 27.1-3.1 55.2 2.2 74.3 22.9 12.6 13.8 18.8 32.6 20.4 51.3 0.8 9.6 0.5 19.3-2.5 28.4-2.9 8.7-8.2 16.4-14.1 23.3-16.7 19.4-40 33.5-65.4 37.2q-6.7 1-13.6 0.9c-21.1-0.2-42.2-7.7-57.5-22.2z"/><path class="g" d="m2523 1143.8l14.7-12.3q6-5 11.9-10 0.1-0.1 0.2-0.2l8.6-7.2 1.3-1 15.3-12.9 105 96.3-64.6 164.4 0.6-72.1-69-83.2-29.9-36.1-3.4-4q0 0 0-0.1l-6.8-8.1z"/><path class="k" d="m2523 1143.8l14.7-12.3q6-5 11.9-10 0.1-0.1 0.2-0.2c2.1-1.8 6-6.6 8.6-7.2q0.1 0 0.1 0c8.8-1.7 12.2 31.8 12.1 38.1 0 16.8-6 46.3-23.6 53.4l-29.9-36.1c0.1-1.3-1.2-2.7-3.4-4q0 0 0-0.1l-6.8-8.1z"/><path class="g" d="m2547.9 1059.7c3.2-15.3 19.6-26.6 35.1-24 15.5 2.6 27.4 18.6 25.3 34.2-1.1 8.6-5.8 15.8-13.1 20.4-3.6 2.2-7.6 3.8-11.8 4.9-5.4 1.5-10.2 0.3-7.2 7.3q2 4.7 4.1 9.4c1.5 3.7 3.1 7.4 3.3 11.4 0.6 13.6-12.5 23.5-19.8 33.5q-13.1 18.2-26.2 36.4c-11.9 16.4-26.3 34.3-46.5 36-14.5 1.2-28.6-7-38.2-18-2.7-3.1 16.4-30.8 14.2-34.3-1.6-2.7-24.8 19-26.2 16.2-3.4-6.5-6.3-13.3-9.2-20-7 4.4-15.3 6.7-23.5 6.8-0.6-21.4-1.3-43.3-9-63.3-6.7-17.2-18.2-32.2-25.6-49-10.2-23.3-12.3-50.1-5.7-74.6 16.3 13.5 39.9 15.1 60.3 9.5 14.3-3.9 26-11.6 39-18.2 15.6-7.9 19.1-4 31.2 8.3 10 10.1 19.2 20.9 27.6 32.4 4.2 5.8 23.4 27.6 21.9 34.7z"/><path class="l" d="m2421.2 1098.2c1.8 3.8 0.2 8.5-3.6 10.3-3.9 1.9-8.5 0.2-10.3-3.6-1.9-3.9-0.3-8.5 3.6-10.3 3.8-1.9 8.4-0.3 10.3 3.6z"/><path class="j" d="m2390.4 1081.9c0.4-1.6 20.1-8.9 32.8-11.8 2.2-0.5 4.5-0.9 6.6-0.6 2 0.4 3.6 1.5 5.3 2.6 4.3 2.8 9.9 5.4 8.9 6.9-1.1 1.5-18.8 0.6-29.6 4.3-7.3 2.5-19 11.5-20 10.8-1-0.8-4.3-10.7-4-12.2z"/><path class="k" d="m2566.9 1053.7c3.1-7.1 14.7-5.7 19.5-2.4 5.1 3.5 7.4 10.1 6.3 16.3-1.1 6.3-5.2 12.1-10.5 16.3 1.7-3.2 3.2-6.5 3.7-10 0.4-3.5-0.3-7.1-2.7-9.5-1.3-1.3-3.3-2.2-5.2-1.7-2.2 0.6-3.6 2.9-3.8 4.9-0.1 2.1 0.7 4 1.5 5.9-2.3-5.4-11.6-13.4-8.8-19.8z"/><path class="p" d="m2692.8 1297c24.3 1.7 36.5 30.4 39.1 54.7 10.6 98.9-32.5 211.9-74.8 299.5-11.7 24.2-26.6 49.8-51.9 58.9-19.3 7-40.7 2.9-60.8-1.3q-54.6-11.4-109.2-22.8c-40.2-8.4-80.6-16.9-118.4-32.8-19.7-8.3-42-25.5-36.3-46.2 3-11 13.7-18.6 24.8-21.3 11.2-2.7 22.8-1.3 34.2 0.1q58.7 7.2 117.3 14.4c31.2 3.8 64.6 4 95 12.2 5.9 1.6 11.7 3.4 17.8 4.1 30.5-93.1 24.6-207.4 80.2-290.8 10-15 25-29.9 43-28.7z"/><path class="g" d="m2304.1 1635.3c-1.6 1.6-3.5 2.9-5.7 3.3-7.9 1.2-15.8-0.3-23.8 0.5-8.8 1-17.3 2.9-26.1 3.5-27 2.1-52.8-8.4-76.6-20.4-2.3-1.1-4.6-2.4-5.6-4.8-0.9-2.4 0.8-6 3.3-5.7-4.8-0.6-10.4-3.5-14.8-5.3-3.3-1.3-8.8-2.7-8.7-7 0-2.4 1.1-4.6 3-6-3.4-1.2-5.9-5.7-4.8-9 0.7-2.3 2.7-3.5 5-4.1 0.5-0.2 6.5-1 6.7-0.5-0.6-2-0.7-4.2 0.5-5.8 1.3-2 4-2.5 6.5-2.9 6.3-0.9 13.5-0.7 20-1 4.4-0.3 8.9-0.6 13.3-0.5 14 0.3 28 2.1 41.7 5.3-0.4-3.1-5.3-4.6-5.3-7.8-0.1-1.6 1.4-3 3-3.5 1.7-0.4 3.5-0.2 5.2 0 18.3 2.7 35.9 7.6 50.4 19.7 4 3.3 7.6 7.6 12.1 10.2 3.8 2.1 5.6 2 7.7 6.3 3.8 8.3 2.7 19.3-1.2 27.3-1.4 2.9-3.2 5.6-5.5 7.9q-0.2 0.2-0.3 0.3z"/><path class="n" d="m2572.9 1615.9c10.8 6.3 19 14.6 25.8 25.1 0.8 1.2-1.1 2.3-2 1.1-4.9-6.7-11.3-12.7-18.3-17.6 4.1 6.6 8.1 13.2 11.3 20.2 4 8.7 7.5 18.8 4.6 28.3-0.5 1.7-2.7 1.2-2.8-0.4-0.9-10-2.8-19.2-7.1-28.4-4.2-8.8-9.5-17.1-14.4-25.4-1.1-1.9 1.1-4 2.9-2.9z"/><path class="h" d="m930.7 2369.3h-94.6v-94.6h94.6z"/><path class="q" d="m836.1 2369.3l-24.9-25.1v-93.2l24.9 23.7z"/><path class="r" d="m903.5 2251l27.2 23.7h-94.6l-24.3-23.1-0.6-0.6z"/><path class="c" d="m838.4 2369.3h-94.6v-94.6h94.6z"/><path class="s" d="m743.8 2369.3l-24.8-25.1v-93.2l24.8 23.7z"/><path class="t" d="m811.2 2251l27.2 23.7h-94.6l-24.2-23.1-0.6-0.6z"/><path class="d" d="m882.2 2275.8h-94.6v-94.6h94.6z"/><path class="j" d="m787.6 2275.8l-24.9-25v-93.2l24.9 23.6z"/><path class="u" d="m855 2157.6l27.2 23.6h-94.6l-24.9-23.6z"/><path class="h" d="m3619.7 2345.2c0 11.7-1.2 23.2-3.5 34.2-13.8 66.9-67.4 119.3-135 131.4q-4.5 0.8-9.1 1.3-10.2 1.3-20.6 1.3c-31.6 0-61.2-8.7-86.5-23.9-16.8-10.1-31.7-23.1-44.1-38.3-23.5-28.9-37.6-65.8-37.6-106 0-13.5 1.6-26.7 4.6-39.3 12.4-51.6 48.6-94 96.3-114.9q10-4.4 20.7-7.4c14.8-4.3 30.4-6.6 46.6-6.6 36.2 0 69.7 11.5 97.2 31 6.9 4.9 13.5 10.3 19.6 16.2 31.7 30.6 51.4 73.5 51.4 121z"/><path class="d" d="m3616.2 2379.4c-13.8 66.9-67.4 119.3-135 131.4q-4.5 0.8-9.1 1.3l20.6-237.8q25.9 20.2 70.9 48.5c20.4 12.8 38.4 34.9 52.6 56.6z"/><path class="c" d="m3511.8 2397c0 35.2-10.6 84.7-30.6 113.8q-4.5 0.8-9.1 1.3-10.2 1.3-20.6 1.3c-31.6 0-61.2-8.7-86.5-23.9-16.8-10.2-31.8-23.1-44.1-38.3 7.4-23.6 24-59.2 61.5-96.6q47.1-47.2 110.3-80.3 19.1 48 19.1 122.7z"/><path class="d" d="m3492.7 2274.3q-71.9-6.3-110 2.2c-38 8.4-78.2 21.1-94.8 29.4 12.4-51.7 48.6-94 96.3-114.9q10-4.4 20.7-7.4l64.6 40z"/><path class="c" d="m3548.7 2208l-56 66.3c-1.1-2-17.4-26.2-57.1-52.8-11.2-7.5-36.6-22.4-51.4-30.5q10-4.4 20.7-7.4c14.8-4.3 30.4-6.6 46.6-6.6 36.2 0 69.7 11.5 97.2 31z"/><path class="b" d="m3512.7 2253.8c12.7 12.7 13.6 32.3 2.1 43.8-11.5 11.5-31.1 10.6-43.8-2.1-12.7-12.7-13.6-32.3-2.1-43.8 11.5-11.6 31.1-10.6 43.8 2.1z"/><path fill-rule="evenodd" class="p" d="m1353.5 2280.5c-2.1 12.7-11.1 23.9-22.7 29.3-29 13.5-59.3-1.5-84.8-21.5 1.2 1 0.9 13.7 1.1 15.6q0.7 9.6 0.6 19.2c0 12.7-1.2 25.5-3.4 38.1-3.7 21.5-10.3 42.5-19.8 62.1-9.5 19.7-24.3 35.1-41.1 48.9-11.2 9.2-23.2 17.7-36.8 22.8-15.4 5.7-32.3 6.8-48.3 3.3-20.6-4.6-39.9-17.9-48.6-37.2-2.2-4.9-3.6-10.1-4.2-15.4-8 6.7-16.7 12.7-25.6 18.1-12.4 7.6-25.5 14.3-39.7 17.4-5.4 1.2-11 1.8-16.6 1.9-10.7 0.2-21.6-1.6-31.6-5.4-19.8-7.5-37-23.4-42.9-43.7-4.3-14.7-1.7-31.6 6.9-44 3.3-4.7 7.4-8.8 12.3-11.9 9.3-5.9 20.4-8 30.8-11.5 16.9-5.7 33.2-14.9 45.8-27.5 14.9-15.2 18.1-30.6 17.4-51.1-25.7 20.1-56.2 35.4-85.3 21.8-12.6-5.8-18.5-16-22.7-28.5-4.5-13 0.2-27.6 8.1-38.6 5.5-7.6 13-13.7 21.6-17.5 10.5-4.8 20.6-4 32-4.5 17.2-0.9 36.8-9.4 50.2-20.3 5.8-4.7 11.1-10.3 16.2-16 7.6-8.6 15-17.4 23.9-24.1-15.7-11.3-28.3-26.8-35.3-46.1-8.7-23.9-12.4-50.8-7.2-75.3-26.8-7.6-42.4-31.8-31.3-59.2 7.4-18.3 24.8-33.1 44.5-34.1 17.6-0.9 35.7 11.1 40.4 27.7q6.4-3 13.1-5.3c21.7-7.1 45.1-8.3 67.9-6.2 15.3 1.3 31 4.5 45.2 10.5 5.2-16.1 22.8-27.6 40.1-26.7 19.8 1 37.2 15.8 44.6 34.1 11.5 28.5-5.7 53.4-34.5 60 1.2 9.8 1.4 19.9 0.9 29.8-0.6 12.3-2 24.8-5.6 36.6-6.3 20.5-19.4 38.5-36.2 51.8 4.5 1.4 8.8 4 12.1 7.3 5.9 5.8 10.2 13 15.3 19.6q1 1.3 2.1 2.5c14.6 17.4 33.9 27.8 56 32.1 20.1 3.9 44.5-3.6 60.9 12.1 7 6.6 10.2 16.2 12.4 25.5 1.8 7.7 3 15.7 1.8 23.5zm-251.8 94.7c-11.4-12.6-17.4 9-19.1 15.2 2.5-0.8 4.8-2 7.2-3.2 3.2-1.6 17.1-6.3 11.9-12z"/><path class="b" d="m972.7 2467.4c-0.9 4.5-2.4 9-5.3 12.4q-1.7 2-3.8 3.3c-10.7 0.2-21.6-1.6-31.6-5.4-19.8-7.5-37-23.4-42.9-43.7-4.3-14.7-1.7-31.6 6.9-44q3.1-1.5 6.9-2.2c22.8-3.9 47.1 10.1 59.6 28.6 10 14.8 13.7 33.6 10.2 51z"/><path class="b" d="m1037.8 2446.3c-2.7-17.4 3.6-37.2 22.4-40.4 22.8-3.9 47.1 10 59.6 28.6 10 14.7 13.7 33.5 10.2 50.9-0.9 4.5-2.4 9-5.3 12.5-7 8.1-19.6 7.8-29.9 5.2-14.8-3.7-28.9-11.2-39.5-22.2-9-9.5-15.5-21.7-17.5-34.6z"/><path class="b" d="m1041.5 1990c-3.5 2.6-6.7 5.6-10.3 8.2-6.8 5-10.4 10.8-15 17.5-4.4 6.5-5.8 8.5-13.9 4-12.2-6.9-14.8-23.2-9.9-35.4 6.7-16.4 33.9-26.4 47.2-11.8 2.4 2.5 4 5.7 5.2 9q0.1 0.2 0.2 0.5c1.5 4.3-0.3 5.5-3.5 8z"/><path class="b" d="m1194.1 1979.7q0.1-0.3 0.2-0.5c1.4-3.2 3.3-6.3 5.8-8.7 14.3-13.6 40.7-1.8 46.3 15 4.1 12.5 0.4 28.6-12.2 34.6-8.4 4-9.7 1.9-13.6-4.8-4.2-7.1-7.4-13.1-13.8-18.5-3.4-2.8-6.4-6-9.7-8.9-3.1-2.7-4.8-4-3-8.2z"/><path class="e" d="m1170.1 2198.2c-0.2 6.1-1.1 13.5-6.7 16.1-3.4 1.6-7.4 0.8-11-0.1-10.6-2.6-23.8-5.1-34.3-10-10.5 4.9-23.8 7.4-34.3 10-3.6 0.9-7.6 1.7-11 0.1-5.6-2.6-6.5-10-6.7-16.1-0.2-5.6-0.3-11.5 2.2-16.4 0.7-1.4 1.6-2.7 2.9-3.5 1.5-0.9 3.4-1.1 5.1-1.1 9.5-0.1 18.6 2.9 27.5 6 2.4 0.8 8.7 2.4 14.3 4.8 5.6-2.4 11.9-4 14.3-4.8 8.9-3.1 18.1-6.1 27.5-6 1.7 0 3.6 0.2 5.1 1.1 1.3 0.8 2.2 2.1 2.9 3.5 2.5 4.9 2.4 10.8 2.2 16.4z"/><path class="b" d="m1173.6 2117.6c0 23.5-25.1 42.6-56.1 42.6-30.9 0-56-19.1-56-42.6 0-23.6 25.1-42.6 56-42.6 31 0 56.1 19 56.1 42.6z"/><path class="d" d="m1133.9 2118.4c0 5.9-7.3 10.6-16.4 10.6-9 0-16.4-4.7-16.4-10.6 0-5.9 7.4-10.7 16.4-10.7 9.1 0 16.4 4.8 16.4 10.7z"/><path class="e" d="m1083.9 2074.6c0 4.9-4 9-9 9-5 0-9-4.1-9-9 0-5 4-9 9-9 5 0 9 4 9 9z"/><path class="e" d="m1168.3 2074.6c0 4.9-4 9-9 9-5 0-9-4.1-9-9 0-5 4-9 9-9 5 0 9 4 9 9z"/></svg>